<svg width="486" height="70" viewBox="0 0 486 70" fill="none" xmlns="http://www.w3.org/2000/svg">
<path d="M35.2372 63.04L32.2772 53.52L25.9572 54.08L22.0372 68.08L8.43719 69.28L0.437187 65.28L17.9572 2.8L31.1572 1.68L39.1572 5.68L56.9972 65.92L43.2372 67.04L35.2372 63.04ZM18.5972 3.6L1.63719 64.32L13.3172 63.36L17.3172 49.36L31.5572 48.08L35.7972 62.24L47.8772 61.2L30.5172 2.56L18.5972 3.6ZM20.1172 37.68C21.1305 34.3733 21.9572 31.2267 22.5972 28.24C23.2905 25.2533 23.8772 22.2667 24.3572 19.28H24.6772C25.1039 22.2133 25.6372 25.0933 26.2772 27.92C26.9705 30.6933 27.7972 33.68 28.7572 36.88L20.1172 37.68ZM88.3491 63.2L82.6691 52.96V67.52L68.9091 68.72L60.9091 64.72V3.92L80.9891 2.16C81.4157 2.10666 81.8157 2.08 82.1891 2.08C82.6157 2.08 83.0157 2.08 83.3891 2.08C86.4824 2.08 89.4691 2.56 92.3491 3.52C95.2291 4.48 97.8157 5.89333 100.109 7.76C102.402 9.62666 104.216 11.8933 105.549 14.56C106.882 17.1733 107.549 20.16 107.549 23.52C107.549 32 104.456 38.1067 98.2691 41.84L111.789 65.92L96.3491 67.2L88.3491 63.2ZM89.1491 37.52C92.4557 35.7067 94.8824 33.3067 96.4291 30.32C97.9757 27.3333 98.7491 23.7333 98.7491 19.52C98.7491 14.56 97.3624 10.56 94.5891 7.52C91.8691 4.42666 88.0291 2.88 83.0691 2.88C82.7491 2.88 82.4291 2.88 82.1091 2.88C81.7891 2.88 81.4424 2.90666 81.0691 2.96L61.7091 4.64V63.92L73.8691 62.88V41.76L77.3091 41.44L88.7491 62.4L102.429 61.2L89.1491 37.52ZM73.8691 15.12L79.1491 14.64H80.0291C81.7891 14.64 83.2557 15.1733 84.4291 16.24C85.6557 17.2533 86.2691 19.04 86.2691 21.6C86.2691 24.2667 85.6291 26.3467 84.3491 27.84C83.0691 29.28 81.3357 30.1067 79.1491 30.32L73.8691 30.8V15.12ZM82.6691 28.32C84.5357 26.9867 85.4691 24.7467 85.4691 21.6C85.4691 21.2267 85.4424 20.88 85.3891 20.56C85.3891 20.24 85.3624 19.92 85.3091 19.6L82.6691 19.84V28.32ZM148.936 24.16C148.563 23.2533 148.163 22.4 147.736 21.6C147.363 20.8 146.963 20.0533 146.536 19.36C142.803 19.7867 140.109 21.6267 138.456 24.88C136.803 28.1333 135.976 32.3733 135.976 37.6C135.976 43.36 136.776 47.6533 138.376 50.48C138.536 50.4267 138.776 50.4 139.096 50.4C140.696 50.24 142.056 49.6533 143.176 48.64C144.349 47.5733 145.336 46.2667 146.136 44.72C146.989 43.12 147.683 41.44 148.216 39.68L167.656 49.52C165.736 55.28 163.176 59.84 159.976 63.2C156.776 66.56 152.323 68.48 146.616 68.96C146.189 69.0133 145.736 69.04 145.256 69.04C144.829 69.04 144.403 69.04 143.976 69.04C140.243 69.04 136.563 68.3733 132.936 67.04C129.363 65.76 126.136 63.7333 123.256 60.96C120.429 58.1867 118.163 54.64 116.456 50.32C114.749 45.9467 113.896 40.72 113.896 34.64C113.896 30.16 114.456 25.9467 115.576 22C116.696 18 118.323 14.48 120.456 11.44C122.643 8.4 125.256 5.94666 128.296 4.08C131.389 2.16 134.883 1.04 138.776 0.719999C139.203 0.666663 139.629 0.639996 140.056 0.639996C140.483 0.639996 140.909 0.639996 141.336 0.639996C145.603 0.639996 149.469 1.54666 152.936 3.36C156.456 5.17333 159.469 7.57333 161.976 10.56C164.536 13.5467 166.483 16.8533 167.816 20.48L156.936 28.16L148.936 24.16ZM148.696 40.88C148.216 42.4267 147.549 43.9733 146.696 45.52C145.843 47.0667 144.803 48.3733 143.576 49.44C142.349 50.4533 140.883 51.04 139.176 51.2C138.963 51.2533 138.723 51.28 138.456 51.28C138.243 51.28 138.003 51.28 137.736 51.28C134.323 51.28 131.709 49.8933 129.896 47.12C128.083 44.3467 127.176 39.84 127.176 33.6C127.176 28 128.083 23.52 129.896 20.16C131.709 16.8 134.643 14.9333 138.696 14.56H139.576C142.189 14.56 144.216 15.3867 145.656 17.04C147.149 18.6933 148.349 20.6667 149.256 22.96L158.856 16.24C157.896 13.68 156.643 11.28 155.096 9.04C153.603 6.8 151.683 4.98666 149.336 3.6C147.043 2.16 144.216 1.43999 140.856 1.43999C140.536 1.43999 140.216 1.43999 139.896 1.43999C139.576 1.43999 139.229 1.46666 138.856 1.52C135.069 1.84 131.683 2.93333 128.696 4.8C125.709 6.61333 123.176 9.01333 121.096 12C119.016 14.9867 117.416 18.4267 116.296 22.32C115.229 26.16 114.696 30.2667 114.696 34.64C114.696 40.72 115.576 45.9733 117.336 50.4C119.149 54.8267 121.683 58.24 124.936 60.64C128.243 63.04 132.083 64.24 136.456 64.24C136.776 64.24 137.096 64.24 137.416 64.24C137.789 64.24 138.163 64.2133 138.536 64.16C144.083 63.7333 148.376 61.92 151.416 58.72C154.509 55.4667 156.936 51.2267 158.696 46L148.696 40.88ZM202.893 63.04L199.933 53.52L193.613 54.08L189.693 68.08L176.093 69.28L168.093 65.28L185.613 2.8L198.813 1.68L206.813 5.68L224.653 65.92L210.893 67.04L202.893 63.04ZM186.253 3.6L169.293 64.32L180.973 63.36L184.973 49.36L199.213 48.08L203.453 62.24L215.533 61.2L198.173 2.56L186.253 3.6ZM187.773 37.68C188.787 34.3733 189.613 31.2267 190.253 28.24C190.947 25.2533 191.533 22.2667 192.013 19.28H192.333C192.76 22.2133 193.293 25.0933 193.933 27.92C194.627 30.6933 195.453 33.68 196.413 36.88L187.773 37.68ZM256.325 63.28L250.325 49.76V67.68L236.565 68.88L228.565 64.88V4.08L241.525 2.96L249.525 6.96L255.445 19.76V2.56L269.365 1.28L277.365 5.28V66.16L264.325 67.28L256.325 63.28ZM256.245 3.27999V25.68C256.245 26.2667 256.272 27.2267 256.325 28.56C256.379 29.84 256.432 31.2 256.485 32.64C256.592 34.0267 256.672 35.2267 256.725 36.24C256.779 37.2 256.805 37.68 256.805 37.68L256.565 37.84C256.565 37.84 256.485 37.5467 256.325 36.96C256.219 36.3733 256.032 35.68 255.765 34.88C255.499 34.0267 255.205 33.2533 254.885 32.56L241.045 3.84L229.365 4.8V64L241.525 63.04V42.08C241.525 41.44 241.499 40.3467 241.445 38.8C241.392 37.2533 241.339 35.6267 241.285 33.92C241.285 32.2133 241.259 30.7733 241.205 29.6C241.152 28.3733 241.125 27.76 241.125 27.76L241.365 27.68C241.365 27.68 241.499 28.2133 241.765 29.28C242.085 30.2933 242.512 31.36 243.045 32.48L257.045 62.48L268.565 61.44V2.16L256.245 3.27999ZM287.628 64.64V3.84L322.108 0.799998L330.108 4.8V17.92L309.308 19.76V24.56L317.868 23.76L325.868 27.76V40.72L309.308 42.24V49.76L323.468 48.48L331.468 52.48V65.52L295.628 68.64L287.628 64.64ZM300.508 51.36V37.52L317.068 36V24.64L300.508 26.16V15.04L321.308 13.2V1.68L288.428 4.56V63.84L322.668 60.8V49.36L300.508 51.36ZM362.594 64.96V57.84C362.594 52.24 363.981 47.2 366.754 42.72C369.527 38.1867 373.181 34.0533 377.714 30.32C379.154 29.0933 380.301 28 381.154 27.04L369.554 25.36L361.554 21.36C362.354 15.3867 364.381 10.6133 367.634 7.04C370.941 3.46666 375.447 1.41333 381.154 0.879997C381.527 0.826665 381.874 0.799998 382.194 0.799998C382.514 0.799998 382.861 0.799998 383.234 0.799998C385.101 0.799998 386.994 1.06666 388.914 1.6C390.887 2.08 393.047 2.88 395.394 4C399.181 5.81333 402.061 8.08 404.034 10.8C406.061 13.52 407.074 17.0933 407.074 21.52C407.074 24.5067 406.541 27.2533 405.474 29.76C404.461 32.2667 402.887 34.6667 400.754 36.96C398.621 39.2533 395.954 41.68 392.754 44.24C391.634 45.0933 390.567 46.0267 389.554 47.04C388.594 48 387.741 48.96 386.994 49.92L398.594 48.88L406.594 52.88V65.84L370.594 68.96L362.594 64.96ZM375.794 51.68C375.794 49.76 376.594 47.76 378.194 45.68C379.794 43.5467 381.821 41.52 384.274 39.6C387.421 37.1467 390.007 34.8 392.034 32.56C394.114 30.2667 395.661 27.92 396.674 25.52C397.741 23.12 398.274 20.4533 398.274 17.52C398.274 12.72 396.994 8.88 394.434 6C391.874 3.06666 388.167 1.6 383.314 1.6C382.994 1.6 382.647 1.6 382.274 1.6C381.954 1.6 381.607 1.62666 381.234 1.68C375.741 2.16 371.421 4.10666 368.274 7.52C365.127 10.9333 363.181 15.3333 362.434 20.72L373.554 22.32C373.821 20.08 374.541 18.0533 375.714 16.24C376.941 14.3733 378.381 13.36 380.034 13.2H380.754C382.301 13.2 383.527 13.7067 384.434 14.72C385.341 15.7333 385.794 17.2533 385.794 19.28C385.794 20.72 385.261 22.4267 384.194 24.4C383.181 26.32 381.181 28.5067 378.194 30.96C373.767 34.5867 370.194 38.6133 367.474 43.04C364.754 47.4133 363.394 52.3467 363.394 57.84V64.08L397.794 61.2V49.76L375.794 51.68ZM384.994 17.6C384.034 18.08 383.261 19.12 382.674 20.72C382.087 22.32 381.741 24.2933 381.634 26.64C382.647 25.4667 383.474 24.2133 384.114 22.88C384.754 21.5467 385.074 20.2133 385.074 18.88C385.074 18.6667 385.074 18.4533 385.074 18.24C385.074 18.0267 385.047 17.8133 384.994 17.6ZM411.606 65.2V49.52L426.006 48.24L434.006 52.24V68L419.606 69.2L411.606 65.2ZM412.406 50.24V64.32L425.206 63.28V49.12L412.406 50.24ZM465.391 69.2C465.071 69.2533 464.751 69.28 464.431 69.28C464.111 69.28 463.791 69.28 463.471 69.28C461.124 69.28 459.018 68.96 457.151 68.32C455.338 67.68 453.578 66.9867 451.871 66.24C448.138 64.5333 445.204 62.2933 443.071 59.52C440.991 56.7467 439.498 53.3333 438.591 49.28C437.738 45.1733 437.311 40.32 437.311 34.72C437.311 30.8267 437.631 26.96 438.271 23.12C438.964 19.28 440.058 15.76 441.551 12.56C443.098 9.30666 445.151 6.64 447.711 4.56C450.271 2.48 453.444 1.28 457.231 0.959996C457.498 0.906664 457.764 0.879997 458.031 0.879997C458.351 0.879997 458.644 0.879997 458.911 0.879997C460.671 0.879997 462.431 1.14666 464.191 1.68C466.004 2.16 468.004 2.85333 470.191 3.76C473.924 5.25333 476.884 7.57333 479.071 10.72C481.258 13.8667 482.831 17.5467 483.791 21.76C484.751 25.9733 485.231 30.5067 485.231 35.36C485.231 39.5733 484.911 43.6533 484.271 47.6C483.631 51.4933 482.538 55.0133 480.991 58.16C479.498 61.3067 477.471 63.84 474.911 65.76C472.351 67.7333 469.178 68.88 465.391 69.2ZM457.311 64.4C460.991 64.08 464.058 62.96 466.511 61.04C469.018 59.12 470.991 56.64 472.431 53.6C473.871 50.5067 474.884 47.0667 475.471 43.28C476.111 39.44 476.431 35.4667 476.431 31.36C476.431 27.6267 476.138 24 475.551 20.48C475.018 16.96 474.084 13.7867 472.751 10.96C471.418 8.13333 469.631 5.89333 467.391 4.24C465.151 2.53333 462.351 1.68 458.991 1.68C458.724 1.68 458.431 1.68 458.111 1.68C457.844 1.68 457.578 1.70666 457.311 1.76C453.578 2.08 450.458 3.25333 447.951 5.28C445.498 7.30666 443.551 9.89333 442.111 13.04C440.671 16.1867 439.631 19.6533 438.991 23.44C438.404 27.1733 438.111 30.9333 438.111 34.72C438.111 38.88 438.378 42.7733 438.911 46.4C439.498 49.9733 440.431 53.12 441.711 55.84C443.044 58.56 444.804 60.6933 446.991 62.24C449.231 63.7333 452.031 64.48 455.391 64.48C455.711 64.48 456.031 64.48 456.351 64.48C456.671 64.48 456.991 64.4533 457.311 64.4ZM456.671 52.72C454.218 52.72 452.618 51.2 451.871 48.16C451.124 45.0667 450.751 40.2133 450.751 33.6C450.751 27.0933 451.151 22.1867 451.951 18.88C452.751 15.5733 454.538 13.8133 457.311 13.6H457.871C460.378 13.6 461.978 15.2 462.671 18.4C463.364 21.6 463.711 26.2933 463.711 32.48C463.711 39.4133 463.284 44.4533 462.431 47.6C461.631 50.7467 459.924 52.4533 457.311 52.72H456.671ZM460.191 50.56C461.364 49.3333 462.111 47.2533 462.431 44.32C462.751 41.3867 462.911 37.44 462.911 32.48C462.911 29.76 462.884 27.3333 462.831 25.2C462.778 23.0133 462.618 21.2 462.351 19.76C461.071 21.04 460.271 23.1733 459.951 26.16C459.684 29.0933 459.551 32.9067 459.551 37.6C459.551 40.4267 459.578 42.9333 459.631 45.12C459.738 47.3067 459.924 49.12 460.191 50.56Z" fill="white"/>
</svg>
